<svg width="322" height="64" viewBox="0 0 322 64" fill="none" xmlns="http://www.w3.org/2000/svg">
<path d="M21.2288 4.03915C21.7694 2.41754 23.2869 1.32374 24.9963 1.32374H292.309C293.919 1.32374 295.369 2.29534 295.982 3.7839L317.768 56.7335C318.844 59.3471 316.922 62.2158 314.096 62.2158H7.34637C4.63578 62.2158 2.72177 59.5603 3.57894 56.9888L21.2288 4.03915Z" fill="#C4C4C4" fill-opacity="0.2" stroke="#FFB22C" stroke-width="2.64748"/>
<path d="M55.793 18.6748C57.7839 18.6748 59.5207 19.0137 61.0033 19.6915C62.4859 20.3692 63.619 21.2906 64.4026 22.4555C65.1863 23.6203 65.5781 24.9229 65.5781 26.3631C65.5781 28.7353 64.8368 30.5991 63.3542 31.9546C61.8716 33.2889 59.3512 33.9561 55.793 33.9561H51.5994V40.0559C51.5994 40.2889 51.5147 40.4901 51.3453 40.6595C51.1758 40.829 50.9746 40.9137 50.7416 40.9137H43.9111C43.6782 40.9137 43.4769 40.829 43.3075 40.6595C43.1381 40.4901 43.0533 40.2889 43.0533 40.0559V19.5326C43.0533 19.2997 43.1381 19.0984 43.3075 18.929C43.4769 18.7596 43.6782 18.6748 43.9111 18.6748H55.793ZM55.666 28.0787C56.1743 28.0787 56.5767 27.9304 56.8732 27.6339C57.1697 27.3162 57.318 26.9032 57.318 26.3949C57.318 25.8654 57.1697 25.4312 56.8732 25.0923C56.5767 24.7535 56.1743 24.584 55.666 24.584H51.6312V28.0787H55.666ZM89.9014 34.4009C90.1343 34.4009 90.3356 34.4856 90.505 34.655C90.6744 34.8245 90.7592 35.0257 90.7592 35.2587V40.0559C90.7592 40.2889 90.6744 40.4901 90.505 40.6595C90.3356 40.829 90.1343 40.9137 89.9014 40.9137H71.3478C71.1148 40.9137 70.9136 40.829 70.7442 40.6595C70.5747 40.4901 70.49 40.2889 70.49 40.0559V19.5326C70.49 19.2997 70.5747 19.0984 70.7442 18.929C70.9136 18.7596 71.1148 18.6748 71.3478 18.6748H78.2101C78.4431 18.6748 78.6443 18.7596 78.8137 18.929C78.9832 19.0984 79.0679 19.2997 79.0679 19.5326V34.4009H89.9014ZM101.961 39.8335C101.686 40.5536 101.21 40.9137 100.532 40.9137H94.5273C94.3367 40.9137 94.1673 40.8502 94.019 40.7231C93.8919 40.5748 93.8284 40.4054 93.8284 40.2148L93.8602 40.0241L100.786 19.7232C100.871 19.4479 101.03 19.2043 101.263 18.9925C101.496 18.7807 101.813 18.6748 102.216 18.6748H111.048C111.45 18.6748 111.768 18.7807 112.001 18.9925C112.234 19.2043 112.393 19.4479 112.477 19.7232L119.403 40.0241L119.435 40.2148C119.435 40.4054 119.361 40.5748 119.212 40.7231C119.085 40.8502 118.927 40.9137 118.736 40.9137H112.731C112.054 40.9137 111.577 40.5536 111.302 39.8335L110.508 37.6096H102.756L101.961 39.8335ZM106.632 24.8064L104.376 31.4145H108.887L106.632 24.8064ZM145.156 18.6748C145.347 18.6748 145.505 18.749 145.633 18.8972C145.781 19.0243 145.855 19.1726 145.855 19.342C145.855 19.4691 145.823 19.5962 145.76 19.7232L137.754 32.9713V40.0559C137.754 40.2889 137.669 40.4901 137.499 40.6595C137.33 40.829 137.129 40.9137 136.896 40.9137H130.129C129.896 40.9137 129.695 40.829 129.525 40.6595C129.356 40.4901 129.271 40.2889 129.271 40.0559V32.9713L121.297 19.7232C121.233 19.5962 121.202 19.4797 121.202 19.3738C121.202 19.1832 121.265 19.0243 121.392 18.8972C121.54 18.749 121.71 18.6748 121.9 18.6748H128.604C129.197 18.6748 129.631 18.9184 129.906 19.4056L133.496 25.696L137.182 19.4691C137.499 18.9396 137.944 18.6748 138.516 18.6748H145.156ZM198.949 27.5068C199.182 27.5068 199.383 27.5916 199.553 27.761C199.722 27.9304 199.807 28.1317 199.807 28.3646V31.7322C199.807 34.9516 198.706 37.3449 196.503 38.9122C194.321 40.4583 191.43 41.2314 187.83 41.2314C184.229 41.2314 181.328 40.4583 179.125 38.9122C176.943 37.3449 175.853 34.9304 175.853 31.6687V27.9199C175.853 25.7595 176.382 23.9698 177.441 22.5508C178.5 21.1105 179.93 20.0515 181.73 19.3738C183.53 18.696 185.563 18.3571 187.83 18.3571C190.541 18.3571 192.775 18.8019 194.533 19.6915C196.291 20.581 197.562 21.5871 198.346 22.7096C199.15 23.8321 199.553 24.7429 199.553 25.4418C199.553 25.6324 199.479 25.8019 199.33 25.9501C199.203 26.0772 199.044 26.1407 198.854 26.1407H191.674C191.25 26.1407 190.943 26.0243 190.753 25.7913C190.096 24.9653 189.122 24.5523 187.83 24.5523C186.855 24.5523 186.04 24.7746 185.383 25.2194C184.748 25.6642 184.43 26.2361 184.43 26.935V32.3359C184.43 33.183 184.748 33.8502 185.383 34.3374C186.019 34.8033 186.834 35.0363 187.83 35.0363C189.143 35.0363 190.107 34.8139 190.721 34.3691C191.356 33.9032 191.684 33.3631 191.706 32.7489H189.736C189.503 32.7489 189.302 32.6641 189.132 32.4947C188.963 32.3253 188.878 32.1241 188.878 31.8911V28.3646C188.878 28.1317 188.963 27.9304 189.132 27.761C189.302 27.5916 189.503 27.5068 189.736 27.5068H198.949ZM209.929 39.8335C209.654 40.5536 209.177 40.9137 208.499 40.9137H202.495C202.304 40.9137 202.135 40.8502 201.987 40.7231C201.86 40.5748 201.796 40.4054 201.796 40.2148L201.828 40.0241L208.754 19.7232C208.838 19.4479 208.997 19.2043 209.23 18.9925C209.463 18.7807 209.781 18.6748 210.183 18.6748H219.015C219.418 18.6748 219.735 18.7807 219.968 18.9925C220.201 19.2043 220.36 19.4479 220.445 19.7232L227.371 40.0241L227.402 40.2148C227.402 40.4054 227.328 40.5748 227.18 40.7231C227.053 40.8502 226.894 40.9137 226.704 40.9137H220.699C220.021 40.9137 219.545 40.5536 219.269 39.8335L218.475 37.6096H210.723L209.929 39.8335ZM214.599 24.8064L212.344 31.4145H216.855L214.599 24.8064ZM245.658 19.5326C245.975 18.9608 246.431 18.6748 247.024 18.6748H252.838C253.071 18.6748 253.272 18.7596 253.441 18.929C253.611 19.0984 253.695 19.2997 253.695 19.5326V40.0559C253.695 40.2889 253.611 40.4901 253.441 40.6595C253.272 40.829 253.071 40.9137 252.838 40.9137H247.087C246.854 40.9137 246.653 40.829 246.484 40.6595C246.314 40.4901 246.23 40.2889 246.23 40.0559V30.2073L243.91 34.7821C243.847 34.9304 243.699 35.0998 243.466 35.2904C243.233 35.4811 242.936 35.5764 242.576 35.5764H240.416C240.056 35.5764 239.759 35.4811 239.526 35.2904C239.293 35.0998 239.145 34.9304 239.081 34.7821L236.762 30.2073V40.0559C236.762 40.2889 236.677 40.4901 236.508 40.6595C236.339 40.829 236.137 40.9137 235.904 40.9137H230.154C229.921 40.9137 229.72 40.829 229.55 40.6595C229.381 40.4901 229.296 40.2889 229.296 40.0559V19.5326C229.296 19.2997 229.381 19.0984 229.55 18.929C229.72 18.7596 229.921 18.6748 230.154 18.6748H235.968C236.561 18.6748 237.016 18.9608 237.334 19.5326L241.496 27.1574L245.658 19.5326ZM278.781 34.7186C279.014 34.7186 279.215 34.8033 279.385 34.9727C279.554 35.1422 279.639 35.3434 279.639 35.5764V40.0559C279.639 40.2889 279.554 40.4901 279.385 40.6595C279.215 40.829 279.014 40.9137 278.781 40.9137H258.703C258.47 40.9137 258.268 40.829 258.099 40.6595C257.93 40.4901 257.845 40.2889 257.845 40.0559V19.5326C257.845 19.2997 257.93 19.0984 258.099 18.929C258.268 18.7596 258.47 18.6748 258.703 18.6748H278.463C278.696 18.6748 278.898 18.7596 279.067 18.929C279.237 19.0984 279.321 19.2997 279.321 19.5326V24.0122C279.321 24.2451 279.237 24.4464 279.067 24.6158C278.898 24.7852 278.696 24.87 278.463 24.87H266.105V26.8715H276.716C276.949 26.8715 277.15 26.9562 277.32 27.1256C277.489 27.295 277.574 27.4963 277.574 27.7292V31.8593C277.574 32.0923 277.489 32.2935 277.32 32.4629C277.15 32.6324 276.949 32.7171 276.716 32.7171H266.105V34.7186H278.781Z" fill="white"/>
</svg>
